<?xml version="1.0" encoding="utf-8" standalone="no"?>
<!DOCTYPE svg PUBLIC "-//W3C//DTD SVG 1.1//EN"
  "http://www.w3.org/Graphics/SVG/1.1/DTD/svg11.dtd">
<svg xmlns:xlink="http://www.w3.org/1999/xlink" width="533.86865pt" height="327.78825pt" viewBox="0 0 533.86865 327.78825" xmlns="http://www.w3.org/2000/svg" version="1.1">
 <metadata>
  <rdf:RDF xmlns:dc="http://purl.org/dc/elements/1.1/" xmlns:cc="http://creativecommons.org/ns#" xmlns:rdf="http://www.w3.org/1999/02/22-rdf-syntax-ns#">
   <cc:Work>
    <dc:type rdf:resource="http://purl.org/dc/dcmitype/StillImage"/>
    <dc:date>2024-11-10T02:44:14.049494</dc:date>
    <dc:format>image/svg+xml</dc:format>
    <dc:creator>
     <cc:Agent>
      <dc:title>Matplotlib v3.8.4, https://matplotlib.org/</dc:title>
     </cc:Agent>
    </dc:creator>
   </cc:Work>
  </rdf:RDF>
 </metadata>
 <defs>
  <style type="text/css">*{stroke-linejoin: round; stroke-linecap: butt}</style>
 </defs>
 <g id="figure_1">
  <g id="patch_1">
   <path d="M 0 327.78825 
L 533.86865 327.78825 
L 533.86865 0 
L 0 0 
z
" style="fill: #ffffff"/>
  </g>
  <g id="axes_1">
   <g id="patch_2">
    <path d="M 40.603125 290.232 
L 397.723125 290.232 
L 397.723125 24.12 
L 40.603125 24.12 
z
" style="fill: #ffffff"/>
   </g>
   <g id="matplotlib.axis_1">
    <g id="xtick_1">
     <g id="line2d_1">
      <path d="M 55.750051 290.232 
L 55.750051 24.12 
" clip-path="url(#pba272a2b69)" style="fill: none; stroke: #cccccc; stroke-width: 0.8; stroke-linecap: round"/>
     </g>
     <g id="text_1">
      <!-- 0 -->
      <g style="fill: #262626" transform="translate(52.568801 304.830437) scale(0.1 -0.1)">
       <defs>
        <path id="DejaVuSans-30" d="M 2034 4250 
Q 1547 4250 1301 3770 
Q 1056 3291 1056 2328 
Q 1056 1369 1301 889 
Q 1547 409 2034 409 
Q 2525 409 2770 889 
Q 3016 1369 3016 2328 
Q 3016 3291 2770 3770 
Q 2525 4250 2034 4250 
z
M 2034 4750 
Q 2819 4750 3233 4129 
Q 3647 3509 3647 2328 
Q 3647 1150 3233 529 
Q 2819 -91 2034 -91 
Q 1250 -91 836 529 
Q 422 1150 422 2328 
Q 422 3509 836 4129 
Q 1250 4750 2034 4750 
z
" transform="scale(0.015625)"/>
       </defs>
       <use xlink:href="#DejaVuSans-30"/>
      </g>
     </g>
    </g>
    <g id="xtick_2">
     <g id="line2d_2">
      <path d="M 110.040109 290.232 
L 110.040109 24.12 
" clip-path="url(#pba272a2b69)" style="fill: none; stroke: #cccccc; stroke-width: 0.8; stroke-linecap: round"/>
     </g>
     <g id="text_2">
      <!-- 50 -->
      <g style="fill: #262626" transform="translate(103.677609 304.830437) scale(0.1 -0.1)">
       <defs>
        <path id="DejaVuSans-35" d="M 691 4666 
L 3169 4666 
L 3169 4134 
L 1269 4134 
L 1269 2991 
Q 1406 3038 1543 3061 
Q 1681 3084 1819 3084 
Q 2600 3084 3056 2656 
Q 3513 2228 3513 1497 
Q 3513 744 3044 326 
Q 2575 -91 1722 -91 
Q 1428 -91 1123 -41 
Q 819 9 494 109 
L 494 744 
Q 775 591 1075 516 
Q 1375 441 1709 441 
Q 2250 441 2565 725 
Q 2881 1009 2881 1497 
Q 2881 1984 2565 2268 
Q 2250 2553 1709 2553 
Q 1456 2553 1204 2497 
Q 953 2441 691 2322 
L 691 4666 
z
" transform="scale(0.015625)"/>
       </defs>
       <use xlink:href="#DejaVuSans-35"/>
       <use xlink:href="#DejaVuSans-30" x="63.623047"/>
      </g>
     </g>
    </g>
    <g id="xtick_3">
     <g id="line2d_3">
      <path d="M 164.330167 290.232 
L 164.330167 24.12 
" clip-path="url(#pba272a2b69)" style="fill: none; stroke: #cccccc; stroke-width: 0.8; stroke-linecap: round"/>
     </g>
     <g id="text_3">
      <!-- 100 -->
      <g style="fill: #262626" transform="translate(154.786417 304.830437) scale(0.1 -0.1)">
       <defs>
        <path id="DejaVuSans-31" d="M 794 531 
L 1825 531 
L 1825 4091 
L 703 3866 
L 703 4441 
L 1819 4666 
L 2450 4666 
L 2450 531 
L 3481 531 
L 3481 0 
L 794 0 
L 794 531 
z
" transform="scale(0.015625)"/>
       </defs>
       <use xlink:href="#DejaVuSans-31"/>
       <use xlink:href="#DejaVuSans-30" x="63.623047"/>
       <use xlink:href="#DejaVuSans-30" x="127.246094"/>
      </g>
     </g>
    </g>
    <g id="xtick_4">
     <g id="line2d_4">
      <path d="M 218.620224 290.232 
L 218.620224 24.12 
" clip-path="url(#pba272a2b69)" style="fill: none; stroke: #cccccc; stroke-width: 0.8; stroke-linecap: round"/>
     </g>
     <g id="text_4">
      <!-- 150 -->
      <g style="fill: #262626" transform="translate(209.076474 304.830437) scale(0.1 -0.1)">
       <use xlink:href="#DejaVuSans-31"/>
       <use xlink:href="#DejaVuSans-35" x="63.623047"/>
       <use xlink:href="#DejaVuSans-30" x="127.246094"/>
      </g>
     </g>
    </g>
    <g id="xtick_5">
     <g id="line2d_5">
      <path d="M 272.910282 290.232 
L 272.910282 24.12 
" clip-path="url(#pba272a2b69)" style="fill: none; stroke: #cccccc; stroke-width: 0.8; stroke-linecap: round"/>
     </g>
     <g id="text_5">
      <!-- 200 -->
      <g style="fill: #262626" transform="translate(263.366532 304.830437) scale(0.1 -0.1)">
       <defs>
        <path id="DejaVuSans-32" d="M 1228 531 
L 3431 531 
L 3431 0 
L 469 0 
L 469 531 
Q 828 903 1448 1529 
Q 2069 2156 2228 2338 
Q 2531 2678 2651 2914 
Q 2772 3150 2772 3378 
Q 2772 3750 2511 3984 
Q 2250 4219 1831 4219 
Q 1534 4219 1204 4116 
Q 875 4013 500 3803 
L 500 4441 
Q 881 4594 1212 4672 
Q 1544 4750 1819 4750 
Q 2544 4750 2975 4387 
Q 3406 4025 3406 3419 
Q 3406 3131 3298 2873 
Q 3191 2616 2906 2266 
Q 2828 2175 2409 1742 
Q 1991 1309 1228 531 
z
" transform="scale(0.015625)"/>
       </defs>
       <use xlink:href="#DejaVuSans-32"/>
       <use xlink:href="#DejaVuSans-30" x="63.623047"/>
       <use xlink:href="#DejaVuSans-30" x="127.246094"/>
      </g>
     </g>
    </g>
    <g id="xtick_6">
     <g id="line2d_6">
      <path d="M 327.20034 290.232 
L 327.20034 24.12 
" clip-path="url(#pba272a2b69)" style="fill: none; stroke: #cccccc; stroke-width: 0.8; stroke-linecap: round"/>
     </g>
     <g id="text_6">
      <!-- 250 -->
      <g style="fill: #262626" transform="translate(317.65659 304.830437) scale(0.1 -0.1)">
       <use xlink:href="#DejaVuSans-32"/>
       <use xlink:href="#DejaVuSans-35" x="63.623047"/>
       <use xlink:href="#DejaVuSans-30" x="127.246094"/>
      </g>
     </g>
    </g>
    <g id="xtick_7">
     <g id="line2d_7">
      <path d="M 381.490398 290.232 
L 381.490398 24.12 
" clip-path="url(#pba272a2b69)" style="fill: none; stroke: #cccccc; stroke-width: 0.8; stroke-linecap: round"/>
     </g>
     <g id="text_7">
      <!-- 300 -->
      <g style="fill: #262626" transform="translate(371.946648 304.830437) scale(0.1 -0.1)">
       <defs>
        <path id="DejaVuSans-33" d="M 2597 2516 
Q 3050 2419 3304 2112 
Q 3559 1806 3559 1356 
Q 3559 666 3084 287 
Q 2609 -91 1734 -91 
Q 1441 -91 1130 -33 
Q 819 25 488 141 
L 488 750 
Q 750 597 1062 519 
Q 1375 441 1716 441 
Q 2309 441 2620 675 
Q 2931 909 2931 1356 
Q 2931 1769 2642 2001 
Q 2353 2234 1838 2234 
L 1294 2234 
L 1294 2753 
L 1863 2753 
Q 2328 2753 2575 2939 
Q 2822 3125 2822 3475 
Q 2822 3834 2567 4026 
Q 2313 4219 1838 4219 
Q 1578 4219 1281 4162 
Q 984 4106 628 3988 
L 628 4550 
Q 988 4650 1302 4700 
Q 1616 4750 1894 4750 
Q 2613 4750 3031 4423 
Q 3450 4097 3450 3541 
Q 3450 3153 3228 2886 
Q 3006 2619 2597 2516 
z
" transform="scale(0.015625)"/>
       </defs>
       <use xlink:href="#DejaVuSans-33"/>
       <use xlink:href="#DejaVuSans-30" x="63.623047"/>
       <use xlink:href="#DejaVuSans-30" x="127.246094"/>
      </g>
     </g>
    </g>
    <g id="text_8">
     <!-- Number of bins ($m$) -->
     <g style="fill: #262626" transform="translate(170.363125 318.508562) scale(0.1 -0.1)">
      <defs>
       <path id="DejaVuSans-4e" d="M 628 4666 
L 1478 4666 
L 3547 763 
L 3547 4666 
L 4159 4666 
L 4159 0 
L 3309 0 
L 1241 3903 
L 1241 0 
L 628 0 
L 628 4666 
z
" transform="scale(0.015625)"/>
       <path id="DejaVuSans-75" d="M 544 1381 
L 544 3500 
L 1119 3500 
L 1119 1403 
Q 1119 906 1312 657 
Q 1506 409 1894 409 
Q 2359 409 2629 706 
Q 2900 1003 2900 1516 
L 2900 3500 
L 3475 3500 
L 3475 0 
L 2900 0 
L 2900 538 
Q 2691 219 2414 64 
Q 2138 -91 1772 -91 
Q 1169 -91 856 284 
Q 544 659 544 1381 
z
M 1991 3584 
L 1991 3584 
z
" transform="scale(0.015625)"/>
       <path id="DejaVuSans-6d" d="M 3328 2828 
Q 3544 3216 3844 3400 
Q 4144 3584 4550 3584 
Q 5097 3584 5394 3201 
Q 5691 2819 5691 2113 
L 5691 0 
L 5113 0 
L 5113 2094 
Q 5113 2597 4934 2840 
Q 4756 3084 4391 3084 
Q 3944 3084 3684 2787 
Q 3425 2491 3425 1978 
L 3425 0 
L 2847 0 
L 2847 2094 
Q 2847 2600 2669 2842 
Q 2491 3084 2119 3084 
Q 1678 3084 1418 2786 
Q 1159 2488 1159 1978 
L 1159 0 
L 581 0 
L 581 3500 
L 1159 3500 
L 1159 2956 
Q 1356 3278 1631 3431 
Q 1906 3584 2284 3584 
Q 2666 3584 2933 3390 
Q 3200 3197 3328 2828 
z
" transform="scale(0.015625)"/>
       <path id="DejaVuSans-62" d="M 3116 1747 
Q 3116 2381 2855 2742 
Q 2594 3103 2138 3103 
Q 1681 3103 1420 2742 
Q 1159 2381 1159 1747 
Q 1159 1113 1420 752 
Q 1681 391 2138 391 
Q 2594 391 2855 752 
Q 3116 1113 3116 1747 
z
M 1159 2969 
Q 1341 3281 1617 3432 
Q 1894 3584 2278 3584 
Q 2916 3584 3314 3078 
Q 3713 2572 3713 1747 
Q 3713 922 3314 415 
Q 2916 -91 2278 -91 
Q 1894 -91 1617 61 
Q 1341 213 1159 525 
L 1159 0 
L 581 0 
L 581 4863 
L 1159 4863 
L 1159 2969 
z
" transform="scale(0.015625)"/>
       <path id="DejaVuSans-65" d="M 3597 1894 
L 3597 1613 
L 953 1613 
Q 991 1019 1311 708 
Q 1631 397 2203 397 
Q 2534 397 2845 478 
Q 3156 559 3463 722 
L 3463 178 
Q 3153 47 2828 -22 
Q 2503 -91 2169 -91 
Q 1331 -91 842 396 
Q 353 884 353 1716 
Q 353 2575 817 3079 
Q 1281 3584 2069 3584 
Q 2775 3584 3186 3129 
Q 3597 2675 3597 1894 
z
M 3022 2063 
Q 3016 2534 2758 2815 
Q 2500 3097 2075 3097 
Q 1594 3097 1305 2825 
Q 1016 2553 972 2059 
L 3022 2063 
z
" transform="scale(0.015625)"/>
       <path id="DejaVuSans-72" d="M 2631 2963 
Q 2534 3019 2420 3045 
Q 2306 3072 2169 3072 
Q 1681 3072 1420 2755 
Q 1159 2438 1159 1844 
L 1159 0 
L 581 0 
L 581 3500 
L 1159 3500 
L 1159 2956 
Q 1341 3275 1631 3429 
Q 1922 3584 2338 3584 
Q 2397 3584 2469 3576 
Q 2541 3569 2628 3553 
L 2631 2963 
z
" transform="scale(0.015625)"/>
       <path id="DejaVuSans-20" transform="scale(0.015625)"/>
       <path id="DejaVuSans-6f" d="M 1959 3097 
Q 1497 3097 1228 2736 
Q 959 2375 959 1747 
Q 959 1119 1226 758 
Q 1494 397 1959 397 
Q 2419 397 2687 759 
Q 2956 1122 2956 1747 
Q 2956 2369 2687 2733 
Q 2419 3097 1959 3097 
z
M 1959 3584 
Q 2709 3584 3137 3096 
Q 3566 2609 3566 1747 
Q 3566 888 3137 398 
Q 2709 -91 1959 -91 
Q 1206 -91 779 398 
Q 353 888 353 1747 
Q 353 2609 779 3096 
Q 1206 3584 1959 3584 
z
" transform="scale(0.015625)"/>
       <path id="DejaVuSans-66" d="M 2375 4863 
L 2375 4384 
L 1825 4384 
Q 1516 4384 1395 4259 
Q 1275 4134 1275 3809 
L 1275 3500 
L 2222 3500 
L 2222 3053 
L 1275 3053 
L 1275 0 
L 697 0 
L 697 3053 
L 147 3053 
L 147 3500 
L 697 3500 
L 697 3744 
Q 697 4328 969 4595 
Q 1241 4863 1831 4863 
L 2375 4863 
z
" transform="scale(0.015625)"/>
       <path id="DejaVuSans-69" d="M 603 3500 
L 1178 3500 
L 1178 0 
L 603 0 
L 603 3500 
z
M 603 4863 
L 1178 4863 
L 1178 4134 
L 603 4134 
L 603 4863 
z
" transform="scale(0.015625)"/>
       <path id="DejaVuSans-6e" d="M 3513 2113 
L 3513 0 
L 2938 0 
L 2938 2094 
Q 2938 2591 2744 2837 
Q 2550 3084 2163 3084 
Q 1697 3084 1428 2787 
Q 1159 2491 1159 1978 
L 1159 0 
L 581 0 
L 581 3500 
L 1159 3500 
L 1159 2956 
Q 1366 3272 1645 3428 
Q 1925 3584 2291 3584 
Q 2894 3584 3203 3211 
Q 3513 2838 3513 2113 
z
" transform="scale(0.015625)"/>
       <path id="DejaVuSans-73" d="M 2834 3397 
L 2834 2853 
Q 2591 2978 2328 3040 
Q 2066 3103 1784 3103 
Q 1356 3103 1142 2972 
Q 928 2841 928 2578 
Q 928 2378 1081 2264 
Q 1234 2150 1697 2047 
L 1894 2003 
Q 2506 1872 2764 1633 
Q 3022 1394 3022 966 
Q 3022 478 2636 193 
Q 2250 -91 1575 -91 
Q 1294 -91 989 -36 
Q 684 19 347 128 
L 347 722 
Q 666 556 975 473 
Q 1284 391 1588 391 
Q 1994 391 2212 530 
Q 2431 669 2431 922 
Q 2431 1156 2273 1281 
Q 2116 1406 1581 1522 
L 1381 1569 
Q 847 1681 609 1914 
Q 372 2147 372 2553 
Q 372 3047 722 3315 
Q 1072 3584 1716 3584 
Q 2034 3584 2315 3537 
Q 2597 3491 2834 3397 
z
" transform="scale(0.015625)"/>
       <path id="DejaVuSans-28" d="M 1984 4856 
Q 1566 4138 1362 3434 
Q 1159 2731 1159 2009 
Q 1159 1288 1364 580 
Q 1569 -128 1984 -844 
L 1484 -844 
Q 1016 -109 783 600 
Q 550 1309 550 2009 
Q 550 2706 781 3412 
Q 1013 4119 1484 4856 
L 1984 4856 
z
" transform="scale(0.015625)"/>
       <path id="DejaVuSans-Oblique-6d" d="M 5747 2113 
L 5338 0 
L 4763 0 
L 5166 2094 
Q 5191 2228 5203 2325 
Q 5216 2422 5216 2491 
Q 5216 2772 5059 2928 
Q 4903 3084 4622 3084 
Q 4203 3084 3875 2770 
Q 3547 2456 3450 1953 
L 3066 0 
L 2491 0 
L 2900 2094 
Q 2925 2209 2937 2307 
Q 2950 2406 2950 2484 
Q 2950 2769 2794 2926 
Q 2638 3084 2363 3084 
Q 1938 3084 1609 2770 
Q 1281 2456 1184 1953 
L 800 0 
L 225 0 
L 909 3500 
L 1484 3500 
L 1375 2956 
Q 1609 3263 1923 3423 
Q 2238 3584 2597 3584 
Q 2978 3584 3223 3384 
Q 3469 3184 3519 2828 
Q 3781 3197 4126 3390 
Q 4472 3584 4856 3584 
Q 5306 3584 5551 3325 
Q 5797 3066 5797 2591 
Q 5797 2488 5784 2364 
Q 5772 2241 5747 2113 
z
" transform="scale(0.015625)"/>
       <path id="DejaVuSans-29" d="M 513 4856 
L 1013 4856 
Q 1481 4119 1714 3412 
Q 1947 2706 1947 2009 
Q 1947 1309 1714 600 
Q 1481 -109 1013 -844 
L 513 -844 
Q 928 -128 1133 580 
Q 1338 1288 1338 2009 
Q 1338 2731 1133 3434 
Q 928 4138 513 4856 
z
" transform="scale(0.015625)"/>
      </defs>
      <use xlink:href="#DejaVuSans-4e" transform="translate(0 0.015625)"/>
      <use xlink:href="#DejaVuSans-75" transform="translate(74.804688 0.015625)"/>
      <use xlink:href="#DejaVuSans-6d" transform="translate(138.183594 0.015625)"/>
      <use xlink:href="#DejaVuSans-62" transform="translate(235.595703 0.015625)"/>
      <use xlink:href="#DejaVuSans-65" transform="translate(299.072266 0.015625)"/>
      <use xlink:href="#DejaVuSans-72" transform="translate(360.595703 0.015625)"/>
      <use xlink:href="#DejaVuSans-20" transform="translate(401.708984 0.015625)"/>
      <use xlink:href="#DejaVuSans-6f" transform="translate(433.496094 0.015625)"/>
      <use xlink:href="#DejaVuSans-66" transform="translate(494.677734 0.015625)"/>
      <use xlink:href="#DejaVuSans-20" transform="translate(529.882812 0.015625)"/>
      <use xlink:href="#DejaVuSans-62" transform="translate(561.669922 0.015625)"/>
      <use xlink:href="#DejaVuSans-69" transform="translate(625.146484 0.015625)"/>
      <use xlink:href="#DejaVuSans-6e" transform="translate(652.929688 0.015625)"/>
      <use xlink:href="#DejaVuSans-73" transform="translate(716.308594 0.015625)"/>
      <use xlink:href="#DejaVuSans-20" transform="translate(768.408203 0.015625)"/>
      <use xlink:href="#DejaVuSans-28" transform="translate(800.195312 0.015625)"/>
      <use xlink:href="#DejaVuSans-Oblique-6d" transform="translate(839.208984 0.015625)"/>
      <use xlink:href="#DejaVuSans-29" transform="translate(936.621094 0.015625)"/>
     </g>
    </g>
   </g>
   <g id="matplotlib.axis_2">
    <g id="ytick_1">
     <g id="line2d_8">
      <path d="M 40.603125 278.136 
L 397.723125 278.136 
" clip-path="url(#pba272a2b69)" style="fill: none; stroke: #cccccc; stroke-width: 0.8; stroke-linecap: round"/>
     </g>
     <g id="text_9">
      <!-- 0 -->
      <g style="fill: #262626" transform="translate(27.240625 281.935219) scale(0.1 -0.1)">
       <use xlink:href="#DejaVuSans-30"/>
      </g>
     </g>
    </g>
    <g id="ytick_2">
     <g id="line2d_9">
      <path d="M 40.603125 230.700706 
L 397.723125 230.700706 
" clip-path="url(#pba272a2b69)" style="fill: none; stroke: #cccccc; stroke-width: 0.8; stroke-linecap: round"/>
     </g>
     <g id="text_10">
      <!-- 10 -->
      <g style="fill: #262626" transform="translate(20.878125 234.499925) scale(0.1 -0.1)">
       <use xlink:href="#DejaVuSans-31"/>
       <use xlink:href="#DejaVuSans-30" x="63.623047"/>
      </g>
     </g>
    </g>
    <g id="ytick_3">
     <g id="line2d_10">
      <path d="M 40.603125 183.265412 
L 397.723125 183.265412 
" clip-path="url(#pba272a2b69)" style="fill: none; stroke: #cccccc; stroke-width: 0.8; stroke-linecap: round"/>
     </g>
     <g id="text_11">
      <!-- 20 -->
      <g style="fill: #262626" transform="translate(20.878125 187.064631) scale(0.1 -0.1)">
       <use xlink:href="#DejaVuSans-32"/>
       <use xlink:href="#DejaVuSans-30" x="63.623047"/>
      </g>
     </g>
    </g>
    <g id="ytick_4">
     <g id="line2d_11">
      <path d="M 40.603125 135.830118 
L 397.723125 135.830118 
" clip-path="url(#pba272a2b69)" style="fill: none; stroke: #cccccc; stroke-width: 0.8; stroke-linecap: round"/>
     </g>
     <g id="text_12">
      <!-- 30 -->
      <g style="fill: #262626" transform="translate(20.878125 139.629336) scale(0.1 -0.1)">
       <use xlink:href="#DejaVuSans-33"/>
       <use xlink:href="#DejaVuSans-30" x="63.623047"/>
      </g>
     </g>
    </g>
    <g id="ytick_5">
     <g id="line2d_12">
      <path d="M 40.603125 88.394824 
L 397.723125 88.394824 
" clip-path="url(#pba272a2b69)" style="fill: none; stroke: #cccccc; stroke-width: 0.8; stroke-linecap: round"/>
     </g>
     <g id="text_13">
      <!-- 40 -->
      <g style="fill: #262626" transform="translate(20.878125 92.194042) scale(0.1 -0.1)">
       <defs>
        <path id="DejaVuSans-34" d="M 2419 4116 
L 825 1625 
L 2419 1625 
L 2419 4116 
z
M 2253 4666 
L 3047 4666 
L 3047 1625 
L 3713 1625 
L 3713 1100 
L 3047 1100 
L 3047 0 
L 2419 0 
L 2419 1100 
L 313 1100 
L 313 1709 
L 2253 4666 
z
" transform="scale(0.015625)"/>
       </defs>
       <use xlink:href="#DejaVuSans-34"/>
       <use xlink:href="#DejaVuSans-30" x="63.623047"/>
      </g>
     </g>
    </g>
    <g id="ytick_6">
     <g id="line2d_13">
      <path d="M 40.603125 40.959529 
L 397.723125 40.959529 
" clip-path="url(#pba272a2b69)" style="fill: none; stroke: #cccccc; stroke-width: 0.8; stroke-linecap: round"/>
     </g>
     <g id="text_14">
      <!-- 50 -->
      <g style="fill: #262626" transform="translate(20.878125 44.758748) scale(0.1 -0.1)">
       <use xlink:href="#DejaVuSans-35"/>
       <use xlink:href="#DejaVuSans-30" x="63.623047"/>
      </g>
     </g>
    </g>
    <g id="text_15">
     <!-- Gap $G_n$ -->
     <g style="fill: #262626" transform="translate(14.778125 175.126) rotate(-90) scale(0.1 -0.1)">
      <defs>
       <path id="DejaVuSans-47" d="M 3809 666 
L 3809 1919 
L 2778 1919 
L 2778 2438 
L 4434 2438 
L 4434 434 
Q 4069 175 3628 42 
Q 3188 -91 2688 -91 
Q 1594 -91 976 548 
Q 359 1188 359 2328 
Q 359 3472 976 4111 
Q 1594 4750 2688 4750 
Q 3144 4750 3555 4637 
Q 3966 4525 4313 4306 
L 4313 3634 
Q 3963 3931 3569 4081 
Q 3175 4231 2741 4231 
Q 1884 4231 1454 3753 
Q 1025 3275 1025 2328 
Q 1025 1384 1454 906 
Q 1884 428 2741 428 
Q 3075 428 3337 486 
Q 3600 544 3809 666 
z
" transform="scale(0.015625)"/>
       <path id="DejaVuSans-61" d="M 2194 1759 
Q 1497 1759 1228 1600 
Q 959 1441 959 1056 
Q 959 750 1161 570 
Q 1363 391 1709 391 
Q 2188 391 2477 730 
Q 2766 1069 2766 1631 
L 2766 1759 
L 2194 1759 
z
M 3341 1997 
L 3341 0 
L 2766 0 
L 2766 531 
Q 2569 213 2275 61 
Q 1981 -91 1556 -91 
Q 1019 -91 701 211 
Q 384 513 384 1019 
Q 384 1609 779 1909 
Q 1175 2209 1959 2209 
L 2766 2209 
L 2766 2266 
Q 2766 2663 2505 2880 
Q 2244 3097 1772 3097 
Q 1472 3097 1187 3025 
Q 903 2953 641 2809 
L 641 3341 
Q 956 3463 1253 3523 
Q 1550 3584 1831 3584 
Q 2591 3584 2966 3190 
Q 3341 2797 3341 1997 
z
" transform="scale(0.015625)"/>
       <path id="DejaVuSans-70" d="M 1159 525 
L 1159 -1331 
L 581 -1331 
L 581 3500 
L 1159 3500 
L 1159 2969 
Q 1341 3281 1617 3432 
Q 1894 3584 2278 3584 
Q 2916 3584 3314 3078 
Q 3713 2572 3713 1747 
Q 3713 922 3314 415 
Q 2916 -91 2278 -91 
Q 1894 -91 1617 61 
Q 1341 213 1159 525 
z
M 3116 1747 
Q 3116 2381 2855 2742 
Q 2594 3103 2138 3103 
Q 1681 3103 1420 2742 
Q 1159 2381 1159 1747 
Q 1159 1113 1420 752 
Q 1681 391 2138 391 
Q 2594 391 2855 752 
Q 3116 1113 3116 1747 
z
" transform="scale(0.015625)"/>
       <path id="DejaVuSans-Oblique-47" d="M 3494 697 
L 3738 1919 
L 2700 1919 
L 2797 2438 
L 4453 2438 
L 4050 384 
Q 3634 156 3143 32 
Q 2653 -91 2156 -91 
Q 1278 -91 783 396 
Q 288 884 288 1753 
Q 288 2475 589 3126 
Q 891 3778 1422 4213 
Q 1756 4484 2153 4617 
Q 2550 4750 3034 4750 
Q 3472 4750 3873 4639 
Q 4275 4528 4641 4306 
L 4513 3634 
Q 4231 3928 3853 4083 
Q 3475 4238 3047 4238 
Q 2550 4238 2172 4048 
Q 1794 3859 1497 3463 
Q 1244 3125 1098 2667 
Q 953 2209 953 1734 
Q 953 1081 1287 751 
Q 1622 422 2284 422 
Q 2616 422 2925 492 
Q 3234 563 3494 697 
z
" transform="scale(0.015625)"/>
       <path id="DejaVuSans-Oblique-6e" d="M 3566 2113 
L 3156 0 
L 2578 0 
L 2988 2091 
Q 3016 2238 3031 2350 
Q 3047 2463 3047 2528 
Q 3047 2791 2881 2937 
Q 2716 3084 2419 3084 
Q 1956 3084 1622 2776 
Q 1288 2469 1184 1941 
L 800 0 
L 225 0 
L 903 3500 
L 1478 3500 
L 1363 2950 
Q 1603 3253 1940 3418 
Q 2278 3584 2650 3584 
Q 3113 3584 3367 3334 
Q 3622 3084 3622 2631 
Q 3622 2519 3608 2391 
Q 3594 2263 3566 2113 
z
" transform="scale(0.015625)"/>
      </defs>
      <use xlink:href="#DejaVuSans-47" transform="translate(0 0.78125)"/>
      <use xlink:href="#DejaVuSans-61" transform="translate(77.490234 0.78125)"/>
      <use xlink:href="#DejaVuSans-70" transform="translate(138.769531 0.78125)"/>
      <use xlink:href="#DejaVuSans-20" transform="translate(202.246094 0.78125)"/>
      <use xlink:href="#DejaVuSans-Oblique-47" transform="translate(234.033203 0.78125)"/>
      <use xlink:href="#DejaVuSans-Oblique-6e" transform="translate(311.523438 -15.625) scale(0.7)"/>
     </g>
    </g>
   </g>
   <g id="PolyCollection_1"/>
   <g id="PolyCollection_2"/>
   <g id="PolyCollection_3"/>
   <g id="PolyCollection_4"/>
   <g id="PolyCollection_5"/>
   <g id="PolyCollection_6"/>
   <g id="PolyCollection_7"/>
   <g id="PolyCollection_8"/>
   <g id="PolyCollection_9"/>
   <g id="line2d_14">
    <path d="M 56.835852 278.136 
L 79.637677 238.764706 
L 102.439501 200.342118 
L 126.327126 173.778353 
L 149.12895 172.355294 
L 171.930775 152.432471 
L 195.8184 134.407059 
L 218.620224 116.381647 
L 241.422049 97.407529 
L 265.309674 109.740706 
L 288.111498 67.048941 
L 310.913323 61.356706 
L 334.800948 60.882353 
L 357.602772 40.010824 
L 381.490398 36.216 
" clip-path="url(#pba272a2b69)" style="fill: none; stroke: #1f77b4; stroke-width: 1.5; stroke-linecap: round"/>
   </g>
   <g id="line2d_15">
    <path d="M 56.835852 278.136 
L 79.637677 270.072 
L 102.439501 269.123294 
L 126.327126 269.123294 
L 149.12895 269.123294 
L 171.930775 268.648941 
L 195.8184 268.648941 
L 218.620224 268.648941 
L 241.422049 268.174588 
L 265.309674 267.700235 
L 288.111498 268.648941 
L 310.913323 268.648941 
L 334.800948 268.174588 
L 357.602772 267.700235 
L 381.490398 268.174588 
" clip-path="url(#pba272a2b69)" style="fill: none; stroke: #ff7f0e; stroke-width: 1.5; stroke-linecap: round"/>
   </g>
   <g id="line2d_16">
    <path d="M 56.835852 278.136 
L 79.637677 272.443765 
L 102.439501 271.969412 
L 126.327126 271.969412 
L 149.12895 270.546353 
L 171.930775 271.495059 
L 195.8184 270.546353 
L 218.620224 269.123294 
L 241.422049 270.072 
L 265.309674 272.443765 
L 288.111498 269.597647 
L 310.913323 271.020706 
L 334.800948 270.546353 
L 357.602772 270.546353 
L 381.490398 269.123294 
" clip-path="url(#pba272a2b69)" style="fill: none; stroke: #2ca02c; stroke-width: 1.5; stroke-linecap: round"/>
   </g>
   <g id="line2d_17">
    <path d="M 56.835852 278.136 
L 79.637677 272.443765 
L 102.439501 272.918118 
L 126.327126 271.495059 
L 149.12895 273.392471 
L 171.930775 271.020706 
L 195.8184 273.392471 
L 218.620224 271.969412 
L 241.422049 271.020706 
L 265.309674 271.495059 
L 288.111498 271.495059 
L 310.913323 271.495059 
L 334.800948 271.495059 
L 357.602772 271.495059 
L 381.490398 271.020706 
" clip-path="url(#pba272a2b69)" style="fill: none; stroke: #d62728; stroke-width: 1.5; stroke-linecap: round"/>
   </g>
   <g id="line2d_18">
    <path d="M 56.835852 278.136 
L 79.637677 272.443765 
L 102.439501 271.969412 
L 126.327126 270.072 
L 149.12895 271.495059 
L 171.930775 270.546353 
L 195.8184 272.443765 
L 218.620224 271.020706 
L 241.422049 271.969412 
L 265.309674 270.546353 
L 288.111498 269.597647 
L 310.913323 269.597647 
L 334.800948 270.546353 
L 357.602772 270.546353 
L 381.490398 270.546353 
" clip-path="url(#pba272a2b69)" style="fill: none; stroke: #9467bd; stroke-width: 1.5; stroke-linecap: round"/>
   </g>
   <g id="line2d_19">
    <path d="M 56.835852 278.136 
L 79.637677 271.020706 
L 102.439501 271.020706 
L 126.327126 271.969412 
L 149.12895 270.072 
L 171.930775 268.648941 
L 195.8184 269.597647 
L 218.620224 268.174588 
L 241.422049 270.072 
L 265.309674 269.597647 
L 288.111498 268.174588 
L 310.913323 270.072 
L 334.800948 270.072 
L 357.602772 269.597647 
L 381.490398 268.174588 
" clip-path="url(#pba272a2b69)" style="fill: none; stroke: #8c564b; stroke-width: 1.5; stroke-linecap: round"/>
   </g>
   <g id="line2d_20">
    <path d="M 56.835852 278.136 
L 79.637677 266.751529 
L 102.439501 267.225882 
L 126.327126 264.854118 
L 149.12895 264.854118 
L 171.930775 263.431059 
L 195.8184 262.956706 
L 218.620224 263.905412 
L 241.422049 262.482353 
L 265.309674 263.905412 
L 288.111498 261.059294 
L 310.913323 262.956706 
L 334.800948 262.008 
L 357.602772 263.905412 
L 381.490398 262.956706 
" clip-path="url(#pba272a2b69)" style="fill: none; stroke: #e377c2; stroke-width: 1.5; stroke-linecap: round"/>
   </g>
   <g id="line2d_21">
    <path d="M 56.835852 278.136 
L 79.637677 262.482353 
L 102.439501 262.482353 
L 126.327126 260.110588 
L 149.12895 257.738824 
L 171.930775 255.841412 
L 195.8184 254.418353 
L 218.620224 256.315765 
L 241.422049 255.841412 
L 265.309674 252.046588 
L 288.111498 250.623529 
L 310.913323 252.046588 
L 334.800948 248.251765 
L 357.602772 251.572235 
L 381.490398 252.046588 
" clip-path="url(#pba272a2b69)" style="fill: none; stroke: #7f7f7f; stroke-width: 1.5; stroke-linecap: round"/>
   </g>
   <g id="line2d_22">
    <path d="M 56.835852 278.136 
L 79.637677 252.520941 
L 102.439501 243.033882 
L 126.327126 236.867294 
L 149.12895 229.752 
L 171.930775 232.123765 
L 195.8184 225.957176 
L 218.620224 235.918588 
L 241.422049 228.328941 
L 265.309674 226.431529 
L 288.111498 227.854588 
L 310.913323 225.008471 
L 334.800948 225.008471 
L 357.602772 226.905882 
L 381.490398 227.380235 
" clip-path="url(#pba272a2b69)" style="fill: none; stroke: #bcbd22; stroke-width: 1.5; stroke-linecap: round"/>
   </g>
   <g id="patch_3">
    <path d="M 40.603125 290.232 
L 40.603125 24.12 
" style="fill: none; stroke: #cccccc; stroke-width: 0.8; stroke-linejoin: miter; stroke-linecap: square"/>
   </g>
   <g id="patch_4">
    <path d="M 397.723125 290.232 
L 397.723125 24.12 
" style="fill: none; stroke: #cccccc; stroke-width: 0.8; stroke-linejoin: miter; stroke-linecap: square"/>
   </g>
   <g id="patch_5">
    <path d="M 40.603125 290.232 
L 397.723125 290.232 
" style="fill: none; stroke: #cccccc; stroke-width: 0.8; stroke-linejoin: miter; stroke-linecap: square"/>
   </g>
   <g id="patch_6">
    <path d="M 40.603125 24.12 
L 397.723125 24.12 
" style="fill: none; stroke: #cccccc; stroke-width: 0.8; stroke-linejoin: miter; stroke-linecap: square"/>
   </g>
   <g id="text_16">
    <!-- Gap $G_n$ (heavy loaded, $n=m^{2}$ balls, $m^{0.5}$-batched, 10 runs) -->
    <g style="fill: #262626" transform="translate(40.783125 18.12) scale(0.12 -0.12)">
     <defs>
      <path id="DejaVuSans-68" d="M 3513 2113 
L 3513 0 
L 2938 0 
L 2938 2094 
Q 2938 2591 2744 2837 
Q 2550 3084 2163 3084 
Q 1697 3084 1428 2787 
Q 1159 2491 1159 1978 
L 1159 0 
L 581 0 
L 581 4863 
L 1159 4863 
L 1159 2956 
Q 1366 3272 1645 3428 
Q 1925 3584 2291 3584 
Q 2894 3584 3203 3211 
Q 3513 2838 3513 2113 
z
" transform="scale(0.015625)"/>
      <path id="DejaVuSans-76" d="M 191 3500 
L 800 3500 
L 1894 563 
L 2988 3500 
L 3597 3500 
L 2284 0 
L 1503 0 
L 191 3500 
z
" transform="scale(0.015625)"/>
      <path id="DejaVuSans-79" d="M 2059 -325 
Q 1816 -950 1584 -1140 
Q 1353 -1331 966 -1331 
L 506 -1331 
L 506 -850 
L 844 -850 
Q 1081 -850 1212 -737 
Q 1344 -625 1503 -206 
L 1606 56 
L 191 3500 
L 800 3500 
L 1894 763 
L 2988 3500 
L 3597 3500 
L 2059 -325 
z
" transform="scale(0.015625)"/>
      <path id="DejaVuSans-6c" d="M 603 4863 
L 1178 4863 
L 1178 0 
L 603 0 
L 603 4863 
z
" transform="scale(0.015625)"/>
      <path id="DejaVuSans-64" d="M 2906 2969 
L 2906 4863 
L 3481 4863 
L 3481 0 
L 2906 0 
L 2906 525 
Q 2725 213 2448 61 
Q 2172 -91 1784 -91 
Q 1150 -91 751 415 
Q 353 922 353 1747 
Q 353 2572 751 3078 
Q 1150 3584 1784 3584 
Q 2172 3584 2448 3432 
Q 2725 3281 2906 2969 
z
M 947 1747 
Q 947 1113 1208 752 
Q 1469 391 1925 391 
Q 2381 391 2643 752 
Q 2906 1113 2906 1747 
Q 2906 2381 2643 2742 
Q 2381 3103 1925 3103 
Q 1469 3103 1208 2742 
Q 947 2381 947 1747 
z
" transform="scale(0.015625)"/>
      <path id="DejaVuSans-2c" d="M 750 794 
L 1409 794 
L 1409 256 
L 897 -744 
L 494 -744 
L 750 256 
L 750 794 
z
" transform="scale(0.015625)"/>
      <path id="DejaVuSans-3d" d="M 678 2906 
L 4684 2906 
L 4684 2381 
L 678 2381 
L 678 2906 
z
M 678 1631 
L 4684 1631 
L 4684 1100 
L 678 1100 
L 678 1631 
z
" transform="scale(0.015625)"/>
      <path id="DejaVuSans-2e" d="M 684 794 
L 1344 794 
L 1344 0 
L 684 0 
L 684 794 
z
" transform="scale(0.015625)"/>
      <path id="DejaVuSans-2d" d="M 313 2009 
L 1997 2009 
L 1997 1497 
L 313 1497 
L 313 2009 
z
" transform="scale(0.015625)"/>
      <path id="DejaVuSans-74" d="M 1172 4494 
L 1172 3500 
L 2356 3500 
L 2356 3053 
L 1172 3053 
L 1172 1153 
Q 1172 725 1289 603 
Q 1406 481 1766 481 
L 2356 481 
L 2356 0 
L 1766 0 
Q 1100 0 847 248 
Q 594 497 594 1153 
L 594 3053 
L 172 3053 
L 172 3500 
L 594 3500 
L 594 4494 
L 1172 4494 
z
" transform="scale(0.015625)"/>
      <path id="DejaVuSans-63" d="M 3122 3366 
L 3122 2828 
Q 2878 2963 2633 3030 
Q 2388 3097 2138 3097 
Q 1578 3097 1268 2742 
Q 959 2388 959 1747 
Q 959 1106 1268 751 
Q 1578 397 2138 397 
Q 2388 397 2633 464 
Q 2878 531 3122 666 
L 3122 134 
Q 2881 22 2623 -34 
Q 2366 -91 2075 -91 
Q 1284 -91 818 406 
Q 353 903 353 1747 
Q 353 2603 823 3093 
Q 1294 3584 2113 3584 
Q 2378 3584 2631 3529 
Q 2884 3475 3122 3366 
z
" transform="scale(0.015625)"/>
     </defs>
     <use xlink:href="#DejaVuSans-47" transform="translate(0 0.765625)"/>
     <use xlink:href="#DejaVuSans-61" transform="translate(77.490234 0.765625)"/>
     <use xlink:href="#DejaVuSans-70" transform="translate(138.769531 0.765625)"/>
     <use xlink:href="#DejaVuSans-20" transform="translate(202.246094 0.765625)"/>
     <use xlink:href="#DejaVuSans-Oblique-47" transform="translate(234.033203 0.765625)"/>
     <use xlink:href="#DejaVuSans-Oblique-6e" transform="translate(311.523438 -15.640625) scale(0.7)"/>
     <use xlink:href="#DejaVuSans-20" transform="translate(358.623047 0.765625)"/>
     <use xlink:href="#DejaVuSans-28" transform="translate(390.410156 0.765625)"/>
     <use xlink:href="#DejaVuSans-68" transform="translate(429.423828 0.765625)"/>
     <use xlink:href="#DejaVuSans-65" transform="translate(492.802734 0.765625)"/>
     <use xlink:href="#DejaVuSans-61" transform="translate(554.326172 0.765625)"/>
     <use xlink:href="#DejaVuSans-76" transform="translate(615.605469 0.765625)"/>
     <use xlink:href="#DejaVuSans-79" transform="translate(674.785156 0.765625)"/>
     <use xlink:href="#DejaVuSans-20" transform="translate(733.964844 0.765625)"/>
     <use xlink:href="#DejaVuSans-6c" transform="translate(765.751953 0.765625)"/>
     <use xlink:href="#DejaVuSans-6f" transform="translate(793.535156 0.765625)"/>
     <use xlink:href="#DejaVuSans-61" transform="translate(854.716797 0.765625)"/>
     <use xlink:href="#DejaVuSans-64" transform="translate(915.996094 0.765625)"/>
     <use xlink:href="#DejaVuSans-65" transform="translate(979.472656 0.765625)"/>
     <use xlink:href="#DejaVuSans-64" transform="translate(1040.996094 0.765625)"/>
     <use xlink:href="#DejaVuSans-2c" transform="translate(1104.472656 0.765625)"/>
     <use xlink:href="#DejaVuSans-20" transform="translate(1136.259766 0.765625)"/>
     <use xlink:href="#DejaVuSans-Oblique-6e" transform="translate(1168.046875 0.765625)"/>
     <use xlink:href="#DejaVuSans-3d" transform="translate(1250.908203 0.765625)"/>
     <use xlink:href="#DejaVuSans-Oblique-6d" transform="translate(1354.179688 0.765625)"/>
     <use xlink:href="#DejaVuSans-32" transform="translate(1456.241693 39.046875) scale(0.7)"/>
     <use xlink:href="#DejaVuSans-20" transform="translate(1503.512201 0.765625)"/>
     <use xlink:href="#DejaVuSans-62" transform="translate(1535.29931 0.765625)"/>
     <use xlink:href="#DejaVuSans-61" transform="translate(1598.775872 0.765625)"/>
     <use xlink:href="#DejaVuSans-6c" transform="translate(1660.055169 0.765625)"/>
     <use xlink:href="#DejaVuSans-6c" transform="translate(1687.838372 0.765625)"/>
     <use xlink:href="#DejaVuSans-73" transform="translate(1715.621576 0.765625)"/>
     <use xlink:href="#DejaVuSans-2c" transform="translate(1767.721185 0.765625)"/>
     <use xlink:href="#DejaVuSans-20" transform="translate(1799.508294 0.765625)"/>
     <use xlink:href="#DejaVuSans-Oblique-6d" transform="translate(1831.295404 0.765625)"/>
     <use xlink:href="#DejaVuSans-30" transform="translate(1933.357409 39.046875) scale(0.7)"/>
     <use xlink:href="#DejaVuSans-2e" transform="translate(1977.893542 39.046875) scale(0.7)"/>
     <use xlink:href="#DejaVuSans-35" transform="translate(2000.144518 39.046875) scale(0.7)"/>
     <use xlink:href="#DejaVuSans-2d" transform="translate(2047.415026 0.765625)"/>
     <use xlink:href="#DejaVuSans-62" transform="translate(2083.49901 0.765625)"/>
     <use xlink:href="#DejaVuSans-61" transform="translate(2146.975573 0.765625)"/>
     <use xlink:href="#DejaVuSans-74" transform="translate(2208.25487 0.765625)"/>
     <use xlink:href="#DejaVuSans-63" transform="translate(2247.463854 0.765625)"/>
     <use xlink:href="#DejaVuSans-68" transform="translate(2302.444323 0.765625)"/>
     <use xlink:href="#DejaVuSans-65" transform="translate(2365.823229 0.765625)"/>
     <use xlink:href="#DejaVuSans-64" transform="translate(2427.346667 0.765625)"/>
     <use xlink:href="#DejaVuSans-2c" transform="translate(2490.823229 0.765625)"/>
     <use xlink:href="#DejaVuSans-20" transform="translate(2522.610339 0.765625)"/>
     <use xlink:href="#DejaVuSans-31" transform="translate(2554.397448 0.765625)"/>
     <use xlink:href="#DejaVuSans-30" transform="translate(2618.020495 0.765625)"/>
     <use xlink:href="#DejaVuSans-20" transform="translate(2681.643542 0.765625)"/>
     <use xlink:href="#DejaVuSans-72" transform="translate(2713.430651 0.765625)"/>
     <use xlink:href="#DejaVuSans-75" transform="translate(2754.543932 0.765625)"/>
     <use xlink:href="#DejaVuSans-6e" transform="translate(2817.922839 0.765625)"/>
     <use xlink:href="#DejaVuSans-73" transform="translate(2881.301745 0.765625)"/>
     <use xlink:href="#DejaVuSans-29" transform="translate(2933.401354 0.765625)"/>
    </g>
   </g>
   <g id="legend_1">
    <g id="patch_7">
     <path d="M 411.865525 158.900885 
L 524.66865 158.900885 
Q 526.66865 158.900885 526.66865 156.900885 
L 526.66865 25.79776 
Q 526.66865 23.79776 524.66865 23.79776 
L 411.865525 23.79776 
Q 409.865525 23.79776 409.865525 25.79776 
L 409.865525 156.900885 
Q 409.865525 158.900885 411.865525 158.900885 
z
" style="fill: #ffffff; opacity: 0.8; stroke: #cccccc; stroke-linejoin: miter"/>
    </g>
    <g id="line2d_23">
     <path d="M 413.865525 31.896197 
L 423.865525 31.896197 
L 433.865525 31.896197 
" style="fill: none; stroke: #1f77b4; stroke-width: 1.5; stroke-linecap: round"/>
    </g>
    <g id="text_17">
     <!-- 1-choice -->
     <g style="fill: #262626" transform="translate(441.865525 35.396197) scale(0.1 -0.1)">
      <use xlink:href="#DejaVuSans-31"/>
      <use xlink:href="#DejaVuSans-2d" x="63.623047"/>
      <use xlink:href="#DejaVuSans-63" x="99.707031"/>
      <use xlink:href="#DejaVuSans-68" x="154.6875"/>
      <use xlink:href="#DejaVuSans-6f" x="218.066406"/>
      <use xlink:href="#DejaVuSans-69" x="279.248047"/>
      <use xlink:href="#DejaVuSans-63" x="307.03125"/>
      <use xlink:href="#DejaVuSans-65" x="362.011719"/>
     </g>
    </g>
    <g id="line2d_24">
     <path d="M 413.865525 46.574322 
L 423.865525 46.574322 
L 433.865525 46.574322 
" style="fill: none; stroke: #ff7f0e; stroke-width: 1.5; stroke-linecap: round"/>
    </g>
    <g id="text_18">
     <!-- 2-choice -->
     <g style="fill: #262626" transform="translate(441.865525 50.074322) scale(0.1 -0.1)">
      <use xlink:href="#DejaVuSans-32"/>
      <use xlink:href="#DejaVuSans-2d" x="63.623047"/>
      <use xlink:href="#DejaVuSans-63" x="99.707031"/>
      <use xlink:href="#DejaVuSans-68" x="154.6875"/>
      <use xlink:href="#DejaVuSans-6f" x="218.066406"/>
      <use xlink:href="#DejaVuSans-69" x="279.248047"/>
      <use xlink:href="#DejaVuSans-63" x="307.03125"/>
      <use xlink:href="#DejaVuSans-65" x="362.011719"/>
     </g>
    </g>
    <g id="line2d_25">
     <path d="M 413.865525 61.252447 
L 423.865525 61.252447 
L 433.865525 61.252447 
" style="fill: none; stroke: #2ca02c; stroke-width: 1.5; stroke-linecap: round"/>
    </g>
    <g id="text_19">
     <!-- 3-choice -->
     <g style="fill: #262626" transform="translate(441.865525 64.752447) scale(0.1 -0.1)">
      <use xlink:href="#DejaVuSans-33"/>
      <use xlink:href="#DejaVuSans-2d" x="63.623047"/>
      <use xlink:href="#DejaVuSans-63" x="99.707031"/>
      <use xlink:href="#DejaVuSans-68" x="154.6875"/>
      <use xlink:href="#DejaVuSans-6f" x="218.066406"/>
      <use xlink:href="#DejaVuSans-69" x="279.248047"/>
      <use xlink:href="#DejaVuSans-63" x="307.03125"/>
      <use xlink:href="#DejaVuSans-65" x="362.011719"/>
     </g>
    </g>
    <g id="line2d_26">
     <path d="M 413.865525 75.930572 
L 423.865525 75.930572 
L 433.865525 75.930572 
" style="fill: none; stroke: #d62728; stroke-width: 1.5; stroke-linecap: round"/>
    </g>
    <g id="text_20">
     <!-- 5-choice -->
     <g style="fill: #262626" transform="translate(441.865525 79.430572) scale(0.1 -0.1)">
      <use xlink:href="#DejaVuSans-35"/>
      <use xlink:href="#DejaVuSans-2d" x="63.623047"/>
      <use xlink:href="#DejaVuSans-63" x="99.707031"/>
      <use xlink:href="#DejaVuSans-68" x="154.6875"/>
      <use xlink:href="#DejaVuSans-6f" x="218.066406"/>
      <use xlink:href="#DejaVuSans-69" x="279.248047"/>
      <use xlink:href="#DejaVuSans-63" x="307.03125"/>
      <use xlink:href="#DejaVuSans-65" x="362.011719"/>
     </g>
    </g>
    <g id="line2d_27">
     <path d="M 413.865525 90.608697 
L 423.865525 90.608697 
L 433.865525 90.608697 
" style="fill: none; stroke: #9467bd; stroke-width: 1.5; stroke-linecap: round"/>
    </g>
    <g id="text_21">
     <!-- 10-choice -->
     <g style="fill: #262626" transform="translate(441.865525 94.108697) scale(0.1 -0.1)">
      <use xlink:href="#DejaVuSans-31"/>
      <use xlink:href="#DejaVuSans-30" x="63.623047"/>
      <use xlink:href="#DejaVuSans-2d" x="127.246094"/>
      <use xlink:href="#DejaVuSans-63" x="163.330078"/>
      <use xlink:href="#DejaVuSans-68" x="218.310547"/>
      <use xlink:href="#DejaVuSans-6f" x="281.689453"/>
      <use xlink:href="#DejaVuSans-69" x="342.871094"/>
      <use xlink:href="#DejaVuSans-63" x="370.654297"/>
      <use xlink:href="#DejaVuSans-65" x="425.634766"/>
     </g>
    </g>
    <g id="line2d_28">
     <path d="M 413.865525 105.286822 
L 423.865525 105.286822 
L 433.865525 105.286822 
" style="fill: none; stroke: #8c564b; stroke-width: 1.5; stroke-linecap: round"/>
    </g>
    <g id="text_22">
     <!-- 20-choice -->
     <g style="fill: #262626" transform="translate(441.865525 108.786822) scale(0.1 -0.1)">
      <use xlink:href="#DejaVuSans-32"/>
      <use xlink:href="#DejaVuSans-30" x="63.623047"/>
      <use xlink:href="#DejaVuSans-2d" x="127.246094"/>
      <use xlink:href="#DejaVuSans-63" x="163.330078"/>
      <use xlink:href="#DejaVuSans-68" x="218.310547"/>
      <use xlink:href="#DejaVuSans-6f" x="281.689453"/>
      <use xlink:href="#DejaVuSans-69" x="342.871094"/>
      <use xlink:href="#DejaVuSans-63" x="370.654297"/>
      <use xlink:href="#DejaVuSans-65" x="425.634766"/>
     </g>
    </g>
    <g id="line2d_29">
     <path d="M 413.865525 119.964947 
L 423.865525 119.964947 
L 433.865525 119.964947 
" style="fill: none; stroke: #e377c2; stroke-width: 1.5; stroke-linecap: round"/>
    </g>
    <g id="text_23">
     <!-- (1+0.25)-choice -->
     <g style="fill: #262626" transform="translate(441.865525 123.464947) scale(0.1 -0.1)">
      <defs>
       <path id="DejaVuSans-2b" d="M 2944 4013 
L 2944 2272 
L 4684 2272 
L 4684 1741 
L 2944 1741 
L 2944 0 
L 2419 0 
L 2419 1741 
L 678 1741 
L 678 2272 
L 2419 2272 
L 2419 4013 
L 2944 4013 
z
" transform="scale(0.015625)"/>
      </defs>
      <use xlink:href="#DejaVuSans-28"/>
      <use xlink:href="#DejaVuSans-31" x="39.013672"/>
      <use xlink:href="#DejaVuSans-2b" x="102.636719"/>
      <use xlink:href="#DejaVuSans-30" x="186.425781"/>
      <use xlink:href="#DejaVuSans-2e" x="250.048828"/>
      <use xlink:href="#DejaVuSans-32" x="281.835938"/>
      <use xlink:href="#DejaVuSans-35" x="345.458984"/>
      <use xlink:href="#DejaVuSans-29" x="409.082031"/>
      <use xlink:href="#DejaVuSans-2d" x="448.095703"/>
      <use xlink:href="#DejaVuSans-63" x="484.179688"/>
      <use xlink:href="#DejaVuSans-68" x="539.160156"/>
      <use xlink:href="#DejaVuSans-6f" x="602.539062"/>
      <use xlink:href="#DejaVuSans-69" x="663.720703"/>
      <use xlink:href="#DejaVuSans-63" x="691.503906"/>
      <use xlink:href="#DejaVuSans-65" x="746.484375"/>
     </g>
    </g>
    <g id="line2d_30">
     <path d="M 413.865525 134.643072 
L 423.865525 134.643072 
L 433.865525 134.643072 
" style="fill: none; stroke: #7f7f7f; stroke-width: 1.5; stroke-linecap: round"/>
    </g>
    <g id="text_24">
     <!-- (1+0.5)-choice -->
     <g style="fill: #262626" transform="translate(441.865525 138.143072) scale(0.1 -0.1)">
      <use xlink:href="#DejaVuSans-28"/>
      <use xlink:href="#DejaVuSans-31" x="39.013672"/>
      <use xlink:href="#DejaVuSans-2b" x="102.636719"/>
      <use xlink:href="#DejaVuSans-30" x="186.425781"/>
      <use xlink:href="#DejaVuSans-2e" x="250.048828"/>
      <use xlink:href="#DejaVuSans-35" x="281.835938"/>
      <use xlink:href="#DejaVuSans-29" x="345.458984"/>
      <use xlink:href="#DejaVuSans-2d" x="384.472656"/>
      <use xlink:href="#DejaVuSans-63" x="420.556641"/>
      <use xlink:href="#DejaVuSans-68" x="475.537109"/>
      <use xlink:href="#DejaVuSans-6f" x="538.916016"/>
      <use xlink:href="#DejaVuSans-69" x="600.097656"/>
      <use xlink:href="#DejaVuSans-63" x="627.880859"/>
      <use xlink:href="#DejaVuSans-65" x="682.861328"/>
     </g>
    </g>
    <g id="line2d_31">
     <path d="M 413.865525 149.321197 
L 423.865525 149.321197 
L 433.865525 149.321197 
" style="fill: none; stroke: #bcbd22; stroke-width: 1.5; stroke-linecap: round"/>
    </g>
    <g id="text_25">
     <!-- (1+0.75)-choice -->
     <g style="fill: #262626" transform="translate(441.865525 152.821197) scale(0.1 -0.1)">
      <defs>
       <path id="DejaVuSans-37" d="M 525 4666 
L 3525 4666 
L 3525 4397 
L 1831 0 
L 1172 0 
L 2766 4134 
L 525 4134 
L 525 4666 
z
" transform="scale(0.015625)"/>
      </defs>
      <use xlink:href="#DejaVuSans-28"/>
      <use xlink:href="#DejaVuSans-31" x="39.013672"/>
      <use xlink:href="#DejaVuSans-2b" x="102.636719"/>
      <use xlink:href="#DejaVuSans-30" x="186.425781"/>
      <use xlink:href="#DejaVuSans-2e" x="250.048828"/>
      <use xlink:href="#DejaVuSans-37" x="281.835938"/>
      <use xlink:href="#DejaVuSans-35" x="345.458984"/>
      <use xlink:href="#DejaVuSans-29" x="409.082031"/>
      <use xlink:href="#DejaVuSans-2d" x="448.095703"/>
      <use xlink:href="#DejaVuSans-63" x="484.179688"/>
      <use xlink:href="#DejaVuSans-68" x="539.160156"/>
      <use xlink:href="#DejaVuSans-6f" x="602.539062"/>
      <use xlink:href="#DejaVuSans-69" x="663.720703"/>
      <use xlink:href="#DejaVuSans-63" x="691.503906"/>
      <use xlink:href="#DejaVuSans-65" x="746.484375"/>
     </g>
    </g>
   </g>
  </g>
 </g>
 <defs>
  <clipPath id="pba272a2b69">
   <rect x="40.603125" y="24.12" width="357.12" height="266.112"/>
  </clipPath>
 </defs>
</svg>
